<svg width="37" height="32" viewBox="0 0 37 32" fill="none" xmlns="http://www.w3.org/2000/svg">
<g clip-path="url(#clip0_1_759)">
<path fill-rule="evenodd" clip-rule="evenodd" d="M34.1772 22.7375V13.3711C34.1772 13.0858 34.1734 12.806 34.1677 12.532C33.9447 4.1597 30.3236 0.952516 21.6565 1.02055C21.3844 1.02244 21.1141 1.02811 20.8457 1.03756C14.3066 1.26246 8.97331 3.67966 8.97142 11.3981L16.8316 13.4392C15.5011 10.3983 16.7333 8.27215 18.678 7.32908C18.7234 7.30451 18.7706 7.28183 18.8197 7.26293C18.9124 7.21947 19.0087 7.17978 19.107 7.14387C19.1562 7.12497 19.2053 7.10607 19.2544 7.09095C19.3036 7.07394 19.3527 7.05693 19.4037 7.04181C19.4472 7.02858 19.4907 7.01536 19.536 7.00213C19.5663 6.99268 19.5984 6.98323 19.6305 6.97567C19.674 6.96433 19.7193 6.9511 19.7647 6.94165C19.7968 6.93409 19.829 6.92653 19.8592 6.91897C19.9121 6.90763 19.9631 6.89629 20.0142 6.88684C20.0671 6.87361 20.1181 6.86416 20.171 6.85849C20.309 6.83392 20.4507 6.81691 20.5906 6.80369C20.6227 6.79991 20.6549 6.79802 20.687 6.79612C20.6964 6.79424 20.7078 6.79424 20.7191 6.79424C20.7853 6.78668 20.8552 6.78479 20.9213 6.7829C20.9875 6.7829 21.0536 6.77912 21.1198 6.77912C21.1859 6.77912 21.2521 6.78101 21.3201 6.7829C21.3428 6.7829 21.3655 6.78479 21.3881 6.78479C21.4505 6.78857 21.5129 6.79235 21.5752 6.79802C21.6263 6.8018 21.6754 6.80557 21.7264 6.81313C21.7359 6.81313 21.7472 6.81313 21.7567 6.81691C21.785 6.8188 21.8134 6.82069 21.8417 6.82636C21.991 6.84337 22.1403 6.86983 22.2858 6.90196C22.3482 6.9133 22.4106 6.92842 22.473 6.94543C22.5467 6.96244 22.6185 6.98323 22.6903 7.00402C22.7716 7.02858 22.8509 7.05315 22.9284 7.0815C22.9927 7.10418 23.055 7.12686 23.1193 7.15332C23.1892 7.18167 23.2592 7.21191 23.3272 7.24214C23.4292 7.28939 23.5313 7.33853 23.6296 7.39334C23.7297 7.44814 23.8261 7.50484 23.9225 7.56721C23.9868 7.60879 24.0491 7.65226 24.1115 7.69572C24.1588 7.73163 24.2079 7.76754 24.2551 7.80534C24.2835 7.82802 24.3137 7.8507 24.3402 7.87527C24.3837 7.90928 24.4252 7.94519 24.4668 7.98299C24.5216 8.03024 24.5745 8.08127 24.6256 8.13229C24.7276 8.23435 24.8259 8.34207 24.9204 8.45547C24.945 8.48571 24.9676 8.51406 24.9903 8.54618C25.0111 8.56886 25.0281 8.59343 25.047 8.618C25.0754 8.65391 25.1018 8.69171 25.1264 8.7314C25.202 8.83723 25.2719 8.94685 25.3362 9.06213C25.3513 9.0867 25.3645 9.11316 25.3777 9.13773C25.4571 9.28136 25.5271 9.43255 25.5913 9.58942C25.6178 9.64422 25.6386 9.70281 25.6593 9.7614C25.6631 9.77085 25.665 9.7803 25.6688 9.78975C25.699 9.86723 25.7255 9.9485 25.7482 10.0298C25.7727 10.1091 25.7954 10.1904 25.8143 10.2717C25.8181 10.2849 25.8219 10.2981 25.8238 10.3095C25.837 10.3605 25.8483 10.4115 25.8578 10.4644C25.8616 10.4758 25.8653 10.489 25.8653 10.5022C25.8729 10.5325 25.8786 10.5627 25.8842 10.593C25.9013 10.6856 25.9164 10.7801 25.9296 10.8746C25.9391 10.9369 25.9466 10.9993 25.9523 11.0617C25.958 11.0995 25.9598 11.1391 25.9636 11.1769C25.9731 11.2677 25.9787 11.3584 25.9825 11.4529C25.9882 11.5568 25.9901 11.6627 25.9901 11.7704C25.9901 12.3203 25.9277 12.9157 25.7954 13.562C25.769 13.6905 25.7387 13.8228 25.7066 13.9551C25.6423 14.2216 25.5648 14.4956 25.476 14.7772C25.408 14.7451 25.3418 14.713 25.2719 14.6827C25.2095 14.6525 25.1434 14.6241 25.0791 14.5977C25.0111 14.5656 24.9412 14.5372 24.8713 14.5089C24.8032 14.4805 24.7333 14.4522 24.6634 14.4257C24.567 14.386 24.4687 14.3501 24.3704 14.3142C24.2759 14.2783 24.1814 14.2462 24.085 14.214C23.9924 14.1819 23.8998 14.1517 23.8053 14.1214C23.7543 14.1044 23.7033 14.0893 23.6523 14.0742C23.5559 14.0458 23.4595 14.0175 23.3612 13.9891C23.3026 13.9721 23.244 13.957 23.1836 13.94C23.091 13.9154 22.9983 13.8909 22.9039 13.8682C22.8112 13.8436 22.7149 13.8209 22.6204 13.8001C22.5637 13.7869 22.507 13.7737 22.4465 13.7605C22.2027 13.7075 21.9532 13.6584 21.6981 13.6168C21.5979 13.5979 21.4959 13.5828 21.3938 13.5677C21.3182 13.5545 21.2426 13.5431 21.1632 13.5337C21.0291 13.5148 20.8949 13.4978 20.7588 13.4826C20.7342 13.4789 20.7097 13.4751 20.6832 13.4732C20.6284 13.4675 20.5736 13.46 20.5188 13.4562C20.2901 13.4316 20.0595 13.4127 19.8271 13.3976C19.812 13.3976 19.7968 13.3976 19.7817 13.3976H19.7798C19.3905 13.373 18.9936 13.3598 18.5911 13.3598C17.992 13.3598 17.4042 13.3881 16.8316 13.4411C15.2176 13.5904 13.7302 13.9438 12.4564 14.4522C8.63312 15.7203 6.6695 18.6194 6.6695 22.6827V22.7999C6.69407 25.7463 7.59178 28.0085 9.35507 29.5885C11.1524 31.1968 13.7151 32.0019 17.0565 32.0019C18.8651 32.0019 20.4659 31.7373 21.8606 31.2138C21.9419 31.1854 22.0213 31.1533 22.1006 31.1193C22.2178 31.0739 22.3331 31.0248 22.4446 30.9738C23.9698 30.2896 25.1396 29.2974 25.9447 28.0066L27.6929 31.1042C27.7496 31.1004 29.6017 31.0985 31.7468 31.1004C33.391 31.1004 35.2091 31.1004 36.5169 31.1023V26.6686C34.5382 26.3775 34.1772 24.7635 34.1772 22.7394V22.7375ZM24.0095 23.1401C23.9868 23.21 23.9584 23.2781 23.9263 23.3442C23.9112 23.3744 23.8942 23.4047 23.8753 23.4349C23.8564 23.4689 23.8375 23.4992 23.8167 23.5275C23.7751 23.588 23.7297 23.6466 23.6787 23.6995C23.6447 23.7373 23.6088 23.7732 23.5691 23.8072L23.5483 23.8242C23.5105 23.8601 23.4708 23.8904 23.4292 23.9206C23.3877 23.9509 23.3461 23.9792 23.3007 24.0057L23.2743 24.0208C23.2289 24.0472 23.1817 24.0718 23.1325 24.0945C23.1609 24.2079 23.1779 24.3232 23.1779 24.4441C23.1779 24.8769 22.9832 25.27 22.6676 25.5535C22.352 25.837 21.9173 26.0128 21.4354 26.0128C21.3125 26.0128 21.1916 26.0014 21.0744 25.9787L21.2256 27.2147H20.4678C20.3865 26.9067 20.2466 26.6345 20.0482 26.4021C19.8516 26.1696 19.5965 25.9768 19.2809 25.8219C19.1826 25.8389 19.0806 25.8464 18.9766 25.8464C18.8386 25.8464 18.6988 25.8313 18.5571 25.7992C18.3454 25.7519 18.1526 25.6688 17.9806 25.563C17.6745 25.8521 17.2455 26.0222 16.7843 26.0222C16.6445 26.0222 16.5027 26.0071 16.3591 25.975C16.0359 25.9013 15.7543 25.7519 15.5294 25.5516C15.3045 25.3532 15.1363 25.1037 15.0475 24.8334L14.9738 24.8618C14.8377 24.9034 14.6997 24.9223 14.5618 24.9223C13.8644 24.9223 13.1992 24.4177 12.9667 23.6466C12.9119 23.4614 12.8854 23.2762 12.8854 23.0947C12.8854 22.6468 13.0461 22.2273 13.3296 21.9249C13.2426 21.7302 13.1991 21.5167 13.201 21.2993C13.201 21.2596 13.2029 21.218 13.2067 21.1784C13.2067 21.1614 13.2067 21.1443 13.2105 21.1292C13.2143 21.0952 13.218 21.0593 13.2237 21.0253C13.2313 20.9799 13.2407 20.9327 13.2521 20.8873C13.2596 20.8552 13.2691 20.8249 13.2785 20.7928C13.2861 20.7645 13.2955 20.7361 13.3069 20.7097C13.3163 20.6775 13.3296 20.6473 13.3428 20.6171C13.3617 20.5717 13.3825 20.5282 13.4052 20.4848C13.4222 20.4507 13.4411 20.4186 13.46 20.3846C13.4732 20.3619 13.4883 20.3411 13.5034 20.3184C13.5223 20.2901 13.5412 20.2618 13.562 20.2334C13.6168 20.1597 13.6792 20.0879 13.7472 20.0198C14.1101 19.657 14.5769 19.4737 15.0286 19.4737C15.1287 19.4737 15.2308 19.4831 15.3291 19.502C15.3971 19.2601 15.5256 19.0295 15.6995 18.833C15.8772 18.6345 16.1002 18.4682 16.3666 18.3548C17.1094 18.0354 17.9277 18.2244 18.3737 18.7668C18.5325 18.5722 18.7385 18.4096 18.9785 18.2962C19.2185 18.1847 19.4907 18.1205 19.7798 18.1205C20.2202 18.1205 20.6208 18.266 20.9251 18.5079C21.2313 18.7498 21.4429 19.0862 21.5034 19.468C21.579 19.4585 21.6565 19.4529 21.7359 19.4529C22.2159 19.4529 22.6525 19.6286 22.9681 19.9121C23.2837 20.1975 23.4784 20.5887 23.4784 21.0215C23.4784 21.1746 23.4519 21.322 23.4085 21.4618C23.6126 21.6055 23.7808 21.7888 23.8979 21.9986C24.0132 22.2103 24.0794 22.4465 24.0794 22.6997C24.0794 22.8528 24.0548 23.0002 24.0113 23.1401H24.0095ZM3.36404 0L0 5.87007L6.26695 7.83747L8.12851 4.80038L3.36404 0Z" fill="url(#paint0_linear_1_759)"/>
<path opacity="0.21" fill-rule="evenodd" clip-rule="evenodd" d="M31.7467 31.0985C29.6017 31.0985 27.7496 31.0985 27.6929 31.1023L25.9447 28.0047C25.1396 29.2955 23.9698 30.2877 22.4446 30.9719C22.3331 31.0229 22.2178 31.072 22.1006 31.1174C22.0213 31.1514 21.9419 31.1836 21.8606 31.2119C20.4659 31.7354 18.8651 32 17.0565 32C13.7151 32 11.1524 31.1949 9.35506 29.5866C7.59177 28.0066 6.69406 25.7444 6.66949 22.798C8.76541 20.5226 11.1259 20.2863 13.562 20.2334C13.5412 20.2617 13.5223 20.2901 13.5034 20.3184C13.4883 20.3411 13.4732 20.3619 13.46 20.3846C13.4411 20.4186 13.4222 20.4507 13.4051 20.4848C13.3825 20.5282 13.3617 20.5717 13.3428 20.6171C13.3295 20.6473 13.3163 20.6775 13.3069 20.7097C13.2955 20.7361 13.2861 20.7645 13.2785 20.7928C13.2691 20.8249 13.2596 20.8552 13.2521 20.8873C13.2407 20.9327 13.2313 20.9799 13.2237 21.0253C13.218 21.0593 13.2143 21.0952 13.2105 21.1292C13.2067 21.1443 13.2067 21.1613 13.2067 21.1784C13.2029 21.218 13.201 21.2596 13.201 21.2993C13.1991 21.5166 13.2426 21.7302 13.3295 21.9249C13.0461 22.2273 12.8854 22.6468 12.8854 23.0947C12.8854 23.2762 12.9119 23.4614 12.9667 23.6466C13.1991 24.4177 13.8644 24.9223 14.5618 24.9223C14.6997 24.9223 14.8377 24.9034 14.9738 24.8618L15.0475 24.8334C15.1363 25.1037 15.3045 25.3532 15.5294 25.5516C15.7543 25.7519 16.0359 25.9012 16.3591 25.975C16.5027 26.0071 16.6445 26.0222 16.7843 26.0222C17.2454 26.0222 17.6745 25.8521 17.9806 25.563C18.1526 25.6688 18.3454 25.7519 18.557 25.7992C18.6988 25.8313 18.8386 25.8464 18.9766 25.8464C19.0806 25.8464 19.1826 25.8389 19.2809 25.8219C19.5965 25.9768 19.8516 26.1696 20.0482 26.4021C20.2466 26.6345 20.3865 26.9067 20.4677 27.2147H21.2256L21.0744 25.9787C21.1916 26.0014 21.3125 26.0128 21.4354 26.0128C21.9173 26.0128 22.352 25.837 22.6676 25.5535C22.9832 25.27 23.1779 24.8769 23.1779 24.4441C23.1779 24.3232 23.1609 24.2079 23.1325 24.0945C23.1817 24.0718 23.2289 24.0472 23.2743 24.0208L23.3007 24.0057C23.3461 23.9792 23.3877 23.9509 23.4292 23.9206C23.4708 23.8904 23.5105 23.8583 23.5483 23.8242L23.5691 23.8072C23.6088 23.7732 23.6447 23.7373 23.6787 23.6995C23.7297 23.6466 23.7751 23.588 23.8167 23.5275C23.8375 23.4992 23.8564 23.4689 23.8753 23.4368C23.8942 23.4047 23.9112 23.3744 23.9263 23.3442C23.9584 23.278 23.9868 23.21 24.0094 23.1401H24.0113C27.7571 25.2832 30.5051 28.2126 31.7467 31.0985Z" fill="white"/>
</g>
<defs>
<linearGradient id="paint0_linear_1_759" x1="22.7432" y1="5.45807" x2="15.3555" y2="26.9142" gradientUnits="userSpaceOnUse">
<stop stop-color="#0171BE"/>
<stop offset="1" stop-color="#1DA2FF"/>
</linearGradient>
<clipPath id="clip0_1_759">
<rect width="36.5169" height="32" fill="white"/>
</clipPath>
</defs>
</svg>
