<svg width="30" height="31" viewBox="0 0 30 31" fill="none" xmlns="http://www.w3.org/2000/svg">
<path d="M0 18.6081L7.87098 18.4162L0.185147 10.7303C0.788387 8.88963 1.79555 7.2247 3.16178 5.85847L24.6145 27.3112C22.082 29.8438 18.523 31.1425 14.7206 30.9218C10.9182 30.701 7.18388 28.9788 4.33907 26.1339C2.213 24.0079 0.713933 21.385 0 18.6081Z" fill="url(#paint0_linear_70_934)"/>
<path d="M30 12.3378L22.1291 12.5298L29.8149 20.2156C29.2116 22.0563 28.2045 23.7212 26.8382 25.0875L5.38546 3.63471C7.91804 1.10214 11.477 -0.196615 15.2794 0.0241703C19.0818 0.244954 22.8161 1.96719 25.6609 4.812C27.787 6.93806 29.2861 9.56096 30 12.3378Z" fill="url(#paint1_linear_70_934)"/>
<defs>
<stop stop-color="#FFD14D"/>
<stop offset="1" stop-color="#FBBC05"/>
</linearGradient>
<linearGradient id="paint1_linear_70_934" x1="18.6844" y1="5.27797" x2="10.6056" y2="25.2117" gradientUnits="userSpaceOnUse">
<stop stop-color="#FFD14D"/>
<stop offset="1" stop-color="#FBBC05"/>
</linearGradient>
</defs>
</svg>
